<svg width="21" height="20" viewBox="0 0 21 20" fill="none" xmlns="http://www.w3.org/2000/svg">
<g clip-path="url(#clip0_691_4680)">
<path d="M20.0219 16.9024C19.8511 17.2484 19.6269 17.5682 19.3568 17.8513C18.9163 18.3279 18.3678 18.7032 17.7527 18.9489C17.148 19.1864 16.4995 19.3066 15.8454 19.3024C14.7452 19.2831 13.6605 19.0521 12.6567 18.6234C11.4656 18.1323 10.3368 17.5144 9.29204 16.7815C8.15558 15.9909 7.08316 15.1202 6.08384 14.1768C5.09474 13.2299 4.18249 12.213 3.35491 11.135C2.59482 10.1481 1.95188 9.08426 1.43782 7.96288C0.991398 7.00397 0.751921 5.96958 0.733582 4.92102C0.729376 4.30668 0.848901 3.69726 1.0857 3.12567C1.33448 2.53472 1.71876 2.004 2.21053 1.57219C2.47087 1.30439 2.78508 1.08902 3.13455 0.938815C3.48401 0.788616 3.86162 0.706648 4.24499 0.697768C4.5189 0.696735 4.78959 0.753944 5.03726 0.86521C5.30146 0.978938 5.52803 1.15904 5.69259 1.38614L7.96181 4.428C8.11875 4.62963 8.25007 4.84821 8.35305 5.07916C8.438 5.25774 8.48456 5.45067 8.48999 5.64661C8.48721 5.88061 8.4161 6.10928 8.28458 6.30707C8.13374 6.54944 7.94953 6.77156 7.73684 6.96754L6.99348 7.70242C6.9417 7.75074 6.90105 7.80877 6.87411 7.87282C6.84717 7.93688 6.83452 8.00556 6.83698 8.07451C6.83711 8.14673 6.84697 8.21863 6.86633 8.28846C6.89567 8.36288 6.92501 8.4187 6.94457 8.47451C7.20723 8.89805 7.51183 9.29676 7.85422 9.66521C8.29436 10.1489 8.76386 10.642 9.27247 11.135C9.80065 11.628 10.3093 12.0838 10.8277 12.5024C11.2161 12.8283 11.6389 13.1151 12.0894 13.3582C12.1383 13.3768 12.197 13.4047 12.2655 13.4327C12.3439 13.4593 12.4268 13.4719 12.51 13.4699C12.5847 13.4714 12.659 13.4582 12.728 13.431C12.7971 13.4037 12.8594 13.3631 12.911 13.3117L13.6544 12.614C13.8605 12.408 14.0979 12.2324 14.3586 12.0931C14.5661 11.9669 14.8069 11.8992 15.0531 11.8978C15.2584 11.9005 15.4611 11.9416 15.6497 12.0187C15.8906 12.1168 16.12 12.2383 16.3344 12.3815L19.572 14.5675C19.8069 14.7136 19.9934 14.92 20.1099 15.1629C20.2114 15.3927 20.2646 15.6392 20.2664 15.8885C20.265 16.2395 20.1814 16.5859 20.0219 16.9024V16.9024Z" stroke="white" stroke-width="1.5" stroke-miterlimit="10"/>
</g>
<defs>
<clipPath id="clip0_691_4680">
<rect width="21" height="20" fill="white"/>
</clipPath>
</defs>
</svg>
